<?xml version="1.0" standalone="no"?>
<!DOCTYPE svg PUBLIC "-//W3C//DTD SVG 20010904//EN"
 "http://www.w3.org/TR/2001/REC-SVG-20010904/DTD/svg10.dtd">
<svg version="1.0" xmlns="http://www.w3.org/2000/svg"
 width="1280.000000pt" height="1280.000000pt" viewBox="0 0 1280.000000 1280.000000"
 preserveAspectRatio="xMidYMid meet">
<metadata>
Created by potrace 1.14, written by Peter Selinger 2001-2017
</metadata>
<g transform="translate(0.000000,1280.000000) scale(0.100000,-0.100000)"
fill="#000000" stroke="none">
<path d="M3512 11820 c-472 -28 -1099 -123 -1502 -227 -470 -121 -872 -309
-1225 -572 -109 -81 -214 -170 -454 -384 -86 -77 -195 -171 -243 -209 l-88
-70 0 -1586 c0 -872 3 -1582 6 -1579 4 3 6 210 5 459 -1 370 1 471 14 553 9
55 20 129 25 165 19 130 59 278 188 705 136 445 178 548 330 799 167 276 429
546 715 734 245 161 706 338 992 381 39 6 113 18 165 27 67 11 178 17 377 19
l282 3 168 55 c110 36 201 59 263 67 52 7 138 18 190 26 135 20 228 18 455
-12 182 -23 216 -31 380 -85 199 -66 443 -179 540 -251 33 -24 101 -71 150
-103 125 -82 273 -232 359 -365 38 -58 88 -134 111 -169 l43 -65 258 3 259 2
125 39 c287 89 476 115 765 107 255 -8 324 -19 547 -84 l87 -26 73 56 c145
110 426 245 638 306 207 59 434 100 600 108 l125 6 95 61 c256 167 421 246
654 316 240 71 345 85 636 85 235 0 268 -2 413 -28 541 -95 1008 -377 1327
-802 220 -292 340 -567 398 -910 25 -146 26 -167 32 -775 4 -490 6 -308 8 845
l2 1470 -30 13 c-43 20 -193 111 -384 234 -411 267 -633 377 -944 469 -288 84
-505 114 -827 113 -461 -1 -755 -62 -1535 -319 -906 -298 -1298 -392 -1880
-451 -231 -24 -617 -24 -768 -1 -294 46 -443 105 -911 360 -432 235 -638 323
-946 401 -295 75 -701 107 -1063 86z"/>
<path d="M3755 10124 c-170 -25 -322 -77 -439 -152 -42 -26 -52 -26 -201 -2
-38 7 -160 12 -270 11 -292 0 -449 -30 -760 -144 -142 -52 -332 -176 -441
-289 -135 -139 -252 -331 -313 -513 -106 -319 -208 -687 -249 -894 -14 -71
-17 -148 -16 -451 0 -389 2 -408 60 -617 l18 -61 -32 -36 c-106 -120 -193
-299 -238 -486 -22 -93 -25 -297 -5 -387 10 -46 12 -92 6 -180 -8 -119 -11
-693 -5 -833 2 -41 2 -160 0 -265 -4 -236 14 -376 72 -550 93 -284 309 -520
579 -635 341 -145 768 -80 1154 175 72 48 182 150 219 203 l27 39 91 7 c51 3
117 10 148 16 30 5 109 19 175 30 223 39 448 97 623 162 92 34 101 32 102 -27
0 -16 2 -167 3 -335 3 -326 5 -342 64 -520 100 -300 296 -522 571 -644 242
-107 545 -108 822 -3 234 88 441 224 549 359 l44 55 86 7 c106 9 367 50 476
76 22 5 81 19 130 31 99 23 138 34 295 86 496 165 875 440 1112 809 66 102
155 313 184 432 9 39 21 72 26 72 5 0 43 -20 86 -43 70 -40 143 -76 242 -120
94 -42 312 -105 470 -136 284 -57 688 -55 980 5 81 16 222 56 283 79 20 8 56
22 80 31 58 22 108 43 227 95 148 65 348 181 449 262 105 85 254 260 341 402
50 80 160 306 160 327 0 8 4 18 9 23 9 11 63 180 81 255 77 324 112 656 114
1080 1 245 -2 296 -17 360 -40 161 -111 308 -195 400 -20 21 -22 32 -17 70 13
86 17 1340 5 1420 -32 214 -130 409 -285 567 -90 91 -176 154 -286 206 -170
82 -307 110 -524 111 -160 0 -191 -4 -340 -46 -199 -56 -403 -194 -524 -356
l-51 -67 -242 3 c-401 6 -652 -41 -878 -161 -202 -108 -417 -314 -565 -541
l-57 -86 -46 52 c-74 83 -132 136 -202 182 -226 151 -474 214 -732 187 -170
-18 -256 -43 -427 -128 l-113 -56 -107 19 c-144 25 -462 25 -606 0 -280 -49
-553 -148 -711 -257 l-44 -30 0 180 c0 246 -20 361 -93 546 -133 334 -466 578
-852 624 -111 13 -165 13 -280 -5z m251 -900 c53 -26 80 -78 88 -168 10 -103
-11 -427 -60 -946 -9 -96 -19 -285 -23 -420 -5 -219 -8 -249 -25 -275 -38 -59
-92 -83 -187 -84 -77 -1 -154 22 -174 53 -24 36 -45 117 -45 171 0 60 -17 205
-30 255 -5 19 -17 67 -26 105 -10 39 -41 120 -69 180 -29 61 -60 128 -70 150
-81 184 -169 346 -214 397 -96 107 -199 147 -347 135 -157 -14 -245 -89 -289
-247 -7 -25 -29 -101 -50 -170 -61 -209 -93 -349 -111 -490 -17 -129 -17 -139
1 -244 36 -217 64 -291 139 -368 90 -92 216 -135 471 -158 343 -32 486 -54
635 -102 255 -80 439 -206 561 -385 27 -40 49 -74 49 -77 0 -3 19 -45 43 -93
78 -160 82 -184 82 -473 0 -254 0 -255 -27 -318 -109 -253 -335 -433 -698
-556 -164 -55 -242 -74 -500 -123 -134 -25 -363 -25 -445 1 -135 42 -278 131
-427 266 -43 40 -81 70 -83 68 -2 -2 3 -92 11 -198 24 -309 27 -410 15 -487
l-12 -70 -83 -42 c-156 -78 -252 -79 -301 -2 -13 22 -32 77 -41 122 -15 76
-16 105 -5 301 10 165 10 234 1 290 -12 79 -9 327 9 728 11 228 11 236 -10
283 -23 55 -20 91 13 145 39 64 131 102 249 102 83 0 134 -17 169 -57 33 -37
35 -46 50 -238 6 -77 19 -169 27 -205 46 -186 171 -381 355 -556 88 -83 176
-135 270 -160 63 -17 71 -17 180 0 174 28 280 55 436 112 175 64 280 124 353
200 94 99 114 167 113 384 -1 159 -2 168 -33 260 -41 118 -101 209 -193 295
-156 145 -376 205 -914 249 -135 12 -200 22 -258 41 -278 91 -513 295 -598
520 -22 57 -23 73 -23 370 l0 310 32 120 c45 170 99 356 175 592 38 120 92
203 160 246 158 100 401 149 635 127 117 -11 136 -14 246 -53 133 -46 283
-165 372 -297 46 -68 101 -127 110 -119 14 15 28 177 29 346 l1 193 26 26 c60
60 184 78 265 38z m6762 -73 c75 -38 72 -11 72 -649 0 -619 0 -617 -55 -661
-54 -42 -234 -72 -275 -45 -8 5 -33 14 -55 19 -36 9 -43 17 -74 75 -70 137
-122 201 -212 262 -151 103 -313 173 -564 245 -27 7 -102 16 -166 20 -109 5
-120 4 -170 -19 -139 -64 -246 -241 -333 -551 -93 -329 -127 -825 -91 -1355
18 -272 50 -413 132 -579 83 -169 228 -286 443 -357 121 -40 391 -46 525 -11
31 8 64 15 73 15 9 1 35 9 57 20 22 11 45 19 50 20 26 1 166 94 220 147 118
115 188 249 239 453 55 225 73 535 41 703 -19 100 -19 135 1 194 24 70 64 96
180 118 70 14 77 13 128 -6 35 -13 68 -35 92 -61 l37 -41 -7 -246 c-13 -515
-72 -838 -198 -1086 -91 -180 -192 -272 -403 -370 -314 -146 -477 -187 -755
-186 -503 0 -909 185 -1059 481 -23 46 -50 95 -61 110 -21 29 -30 65 -55 210
-24 141 -42 242 -66 368 -19 107 -20 139 -16 525 3 317 8 436 20 517 9 58 24
152 33 210 47 311 62 361 167 580 68 142 147 261 227 340 120 121 218 150 503
150 328 0 564 -55 835 -192 74 -38 144 -68 157 -68 32 0 37 41 40 330 1 150 6
261 13 286 14 49 53 90 96 104 52 16 186 5 234 -19z m-3563 -831 c66 -41 91
-136 81 -300 -4 -58 -11 -172 -16 -255 -5 -82 -14 -197 -19 -255 -6 -58 -17
-179 -25 -270 -8 -91 -18 -201 -22 -245 -5 -44 -7 -145 -5 -225 3 -228 -14
-281 -107 -321 -76 -33 -237 -17 -274 28 -25 31 -48 118 -48 188 0 158 -57
386 -139 559 -34 70 -61 130 -61 131 0 1 -27 61 -61 131 -102 215 -170 303
-281 361 -49 26 -62 28 -168 28 -129 0 -174 -14 -244 -75 -52 -46 -68 -83
-132 -302 -85 -293 -105 -379 -125 -544 -14 -119 -14 -116 4 -224 40 -231 67
-301 142 -374 100 -98 252 -140 615 -171 295 -25 502 -73 675 -157 215 -105
348 -238 455 -457 85 -175 92 -205 98 -454 5 -250 -2 -304 -55 -412 -88 -178
-242 -317 -475 -428 -252 -122 -667 -219 -938 -221 -125 -1 -154 2 -214 21
-140 46 -286 140 -435 279 l-74 68 7 -119 c4 -66 12 -151 17 -190 14 -97 14
-417 0 -442 -14 -28 -153 -98 -223 -114 -145 -31 -206 50 -211 275 -1 61 0
201 2 311 3 140 1 207 -7 222 -14 26 -17 400 -3 435 5 13 14 126 20 251 11
220 11 229 -9 274 -24 55 -25 84 -4 126 40 80 107 116 225 124 176 12 249 -42
249 -186 0 -96 27 -293 49 -362 54 -164 154 -314 320 -480 119 -118 207 -172
315 -189 99 -16 306 22 531 96 264 87 433 198 486 321 65 151 64 395 -2 573
-49 132 -168 277 -283 345 -136 80 -416 140 -796 170 -176 14 -237 25 -340 63
-202 74 -420 260 -499 425 -22 45 -44 109 -50 141 -14 78 -14 517 0 609 15 98
49 224 135 512 88 289 108 338 171 406 55 60 177 115 343 155 103 25 376 25
470 0 223 -58 370 -159 496 -338 30 -42 67 -87 82 -98 25 -20 27 -20 33 -3 4
10 8 38 8 63 1 25 6 88 12 140 8 67 9 120 2 180 -12 105 -3 140 44 179 66 54
189 64 258 21z"/>
<path d="M12785 5363 c-20 -81 -124 -342 -175 -438 -160 -305 -288 -484 -504
-703 -166 -170 -255 -243 -444 -370 -243 -161 -740 -378 -1092 -476 -414 -115
-1067 -134 -1533 -45 -60 11 -110 19 -111 17 -55 -88 -183 -228 -276 -301 -36
-28 -96 -81 -135 -117 -94 -89 -161 -138 -280 -203 -55 -30 -137 -75 -182
-101 -294 -164 -642 -296 -1013 -385 -157 -37 -305 -69 -354 -77 -33 -4 -72
-22 -125 -56 -160 -105 -393 -237 -497 -282 -59 -26 -194 -76 -299 -111 -179
-60 -202 -65 -396 -89 -256 -32 -288 -32 -529 0 -165 22 -219 34 -350 76 -329
107 -475 191 -808 465 -115 95 -194 181 -252 273 -107 170 -176 292 -210 367
l-36 81 -115 -65 c-239 -138 -576 -257 -834 -295 -118 -17 -521 -17 -640 0
-162 23 -441 110 -578 178 -194 98 -515 330 -628 453 -97 105 -294 410 -354
549 l-34 77 -1 -641 0 -641 92 -38 c51 -21 232 -106 403 -190 392 -193 531
-248 778 -309 233 -58 458 -81 867 -91 652 -14 789 -53 1350 -381 627 -366
1003 -487 1552 -501 254 -6 407 4 618 43 327 60 523 124 1315 428 209 81 441
169 515 197 372 141 630 257 995 449 684 360 821 405 1540 510 650 95 958 177
1394 371 290 129 557 291 891 540 185 138 319 231 418 289 l72 42 0 764 c0
420 -2 764 -4 764 -2 0 -7 -12 -11 -27z"/>
</g>
</svg>
